<svg width="488" height="120" viewBox="0 0 488 120" fill="none" xmlns="http://www.w3.org/2000/svg">
<g clip-path="url(#clip0_8_11257)">
<path d="M104.8 39.9357C102.313 39.8651 99.8384 40.3132 97.5374 41.2507C95.2363 42.1882 93.16 43.5942 91.443 45.3776C89.6533 47.2736 88.263 49.5038 87.3534 51.9379C86.4438 54.372 86.0331 56.9612 86.1453 59.5543C86.0229 62.1949 86.4279 64.8335 87.3369 67.3189C88.246 69.8043 89.6413 72.0876 91.443 74.038C93.1388 75.8502 95.2039 77.285 97.5018 78.2472C99.7996 79.2094 102.278 79.6771 104.772 79.6194C107.236 79.6707 109.683 79.1992 111.948 78.2365C114.213 77.2738 116.243 75.8423 117.903 74.038C121.305 70.061 123.172 65.0177 123.172 59.8055C123.172 54.5932 121.305 49.55 117.903 45.573C116.233 43.7594 114.188 42.3224 111.908 41.3594C109.628 40.3965 107.165 39.93 104.687 39.9916L104.8 39.9357ZM87.1316 26.4845V33.8799C89.9903 30.9967 93.3753 28.6766 97.107 27.0427C100.733 25.5139 104.635 24.7351 108.576 24.7543C112.833 24.7135 117.049 25.5796 120.939 27.2937C124.828 29.0078 128.3 31.5299 131.119 34.6892C137.436 41.6548 140.762 50.7851 140.39 60.1404C140.533 64.7468 139.758 69.3358 138.109 73.6453C136.46 77.9549 133.97 81.9005 130.781 85.2567C127.925 88.4401 124.418 90.9848 120.492 92.7219C116.566 94.4589 112.312 95.3483 108.012 95.3311C104.266 95.3621 100.551 94.6603 97.0788 93.266C93.3394 91.6382 89.9304 89.3497 87.0188 86.5125V118.131H70.1113V26.4287L87.1316 26.4845Z" fill="#FDBB2C"/>
<path d="M214.106 39.9352C211.637 39.8781 209.184 40.3468 206.914 41.3098C204.644 42.2727 202.609 43.7073 200.947 45.5166C197.405 49.3543 195.523 54.4138 195.705 59.6097C195.508 64.8901 197.422 70.0344 201.031 73.9259C202.692 75.7287 204.723 77.1593 206.988 78.1219C209.253 79.0845 211.699 79.5568 214.163 79.5073C216.657 79.5649 219.135 79.0972 221.433 78.135C223.73 77.1728 225.796 75.738 227.491 73.9259C229.293 71.9755 230.688 69.6922 231.597 67.2068C232.507 64.7215 232.912 62.0829 232.789 59.4422C232.901 56.8492 232.491 54.2599 231.581 51.8258C230.671 49.3917 229.281 47.1615 227.491 45.2654C225.765 43.4792 223.679 42.0717 221.368 41.1343C219.058 40.1969 216.574 39.7503 214.078 39.8236L214.106 39.9352ZM232.226 26.3166H249.133V93.2933H232.226V86.205C229.343 89.0382 225.962 91.3268 222.25 92.9585C218.807 94.349 215.12 95.0509 211.401 95.0236C207.14 95.0217 202.928 94.1253 199.042 92.3936C195.156 90.6619 191.685 88.1342 188.858 84.9771C185.676 81.6182 183.195 77.6709 181.556 73.3612C179.917 69.0514 179.152 64.4637 179.305 59.8608C178.933 50.5189 182.248 41.4004 188.548 34.4375C191.365 31.2776 194.837 28.7567 198.727 27.047C202.618 25.3372 206.835 24.4789 211.091 24.5306C215.023 24.5112 218.916 25.2901 222.532 26.819C226.244 28.4434 229.603 30.7653 232.423 33.6561L232.226 26.3166ZM255.361 26.3166H272.268V33.1538C275.431 30.4015 279.005 28.1515 282.864 26.484C285.941 25.2385 289.233 24.5941 292.557 24.5864C295.768 24.5276 298.957 25.1158 301.932 26.3151C304.906 27.5145 307.603 29.2999 309.859 31.5631C313.861 35.498 315.833 41.3027 315.833 49.0329V93.3771H298.926V63.9352C299.146 58.5813 298.777 53.2195 297.827 47.9445C297.255 45.5651 295.896 43.4433 293.966 41.9166C292.007 40.5008 289.627 39.774 287.203 39.8515C283.859 39.7816 280.621 41.0142 278.186 43.2841C275.525 45.8449 273.707 49.1426 272.973 52.7445C272.309 57.2618 272.055 61.8288 272.212 66.3911V93.3492H255.304L255.361 26.3166ZM321.187 -0.111328H338.095V53.9446L363.062 26.3166H384.309L355.228 58.4375L387.831 93.2655H366.64L338.038 62.2329V93.3771H321.131L321.187 -0.111328ZM390.564 -0.111328H407.472V93.3771H390.564V-0.111328ZM414.77 26.3166H432.129L449.741 68.4282L457.969 88.1027L444.133 117.935H426.549L440.639 88.4096L414.77 26.3166ZM145.941 26.3166H160.171V34.4655C161.521 31.4106 163.695 28.7839 166.455 26.8748C168.992 25.1493 172.001 24.2339 175.078 24.2515C177.481 24.3131 179.839 24.9042 181.982 25.9817L176.684 40.4934C175.172 39.6434 173.487 39.1381 171.753 39.0143C170.307 39.1235 168.921 39.6307 167.751 40.4789C166.581 41.3271 165.673 42.4824 165.131 43.8143C163.327 47.0515 162.313 53.3027 162.313 62.7073L162.736 65.9725V93.2655H145.828L145.941 26.3166Z" fill="white"/>
<path fill-rule="evenodd" clip-rule="evenodd" d="M465.801 72.2241L487.02 26.4287H446.639L465.322 40.4101L465.801 72.2241Z" fill="#FDBB2C"/>
<path fill-rule="evenodd" clip-rule="evenodd" d="M485.132 27.3486L466.195 39.5719L466.618 67.3114L485.132 27.3486Z" fill="white"/>
<path d="M44.4954 89.9437V80.4274C42.1519 83.8213 38.9829 86.5758 35.2808 88.4367C31.5573 90.3181 27.4281 91.2757 23.2483 91.2274C19.21 91.2957 15.2218 90.3347 11.6666 88.4367C8.36613 86.7004 5.74729 83.9202 4.22733 80.539C2.52136 76.0886 1.74487 71.3417 1.94482 66.5855V26.3994H18.8523V55.5902C18.5992 61.077 18.9108 66.5752 19.7823 71.9995C20.346 73.924 21.5469 75.6048 23.1919 76.7716C25.0441 78.0053 27.2456 78.6212 29.4759 78.5297C32.2544 78.5594 34.9731 77.7302 37.2533 76.1576C39.4116 74.7497 41.0602 72.6967 41.9593 70.2971C43.1117 64.6616 43.5378 58.904 43.2274 53.1623V26.3716H60.1349V89.86L44.4954 89.9437Z" fill="#FDBB2C"/>
</g>
<defs>
<clipPath id="clip0_8_11257">
<rect width="487.5" height="120" fill="white"/>
</clipPath>
</defs>
</svg>
